# xmcd CD database file
#
# Track frame offsets:
#	150
#	15326
#	31246
#	33199
#	49928
#	62626
#	66366
#	81703
#	101340
#	125168
#	138335
#	152528
#	169398
#	172130
#	194539
#	198206
#	207103
#	220120
#
# Disc length: 3174 seconds
#
# Revision: 0
# Processed by: cddbd v1.5PL3 Copyright (c) Steve Scherf et al.
# Submitted via: CDex 1.51
#
DISCID=030c6412
DTITLE=Mark Steiner - Christmas Dreaming
DYEAR=2000
DGENRE=Jazz
TTITLE0=Joy to the World
TTITLE1=Silent Night
TTITLE2=The Echo Princess
TTITLE3=Fa La La
TTITLE4=Oh Holy Night
TTITLE5=Improvisational Chorale #5
TTITLE6=The 12 Days of Christmas
TTITLE7=Away in a Manger
TTITLE8=The Carol of the Bells
TTITLE9=The King's Caravan
TTITLE10=Improvisational Chorale #7
TTITLE11=Merry Gentlemen
TTITLE12=Christmas Con Carne in C Major
TTITLE13=Bring a Torch
TTITLE14=Yuletide Adventure
TTITLE15=Na Na Na
TTITLE16=The Talking Flake
TTITLE17=A Season Apart
EXTD=YEAR: 2000
EXTT0=
EXTT1=
EXTT2=
EXTT3=
EXTT4=
EXTT5=
EXTT6=
EXTT7=
EXTT8=
EXTT9=
EXTT10=
EXTT11=
EXTT12=
EXTT13=
EXTT14=
EXTT15=
EXTT16=
EXTT17=
PLAYORDER=
